<svg width="280" height="360" viewBox="0 0 280 360" fill="none" xmlns="http://www.w3.org/2000/svg">
<g clip-path="url(#clip0_0_1185)">
<g opacity="0.7">
<path opacity="0.0416667" d="M-553.302 860.396C-506.561 828.157 -312.732 597.47 -527.17 399.922C-781.402 165.714 -635.026 -41.5419 -376.724 -1.20838C71.035 68.7086 437.617 -370.123 388.051 -561.781" stroke="url(#paint0_linear_0_1185)"/>
<path opacity="0.0833333" d="M-594.344 841.279C-546.298 811.544 -341.995 591.445 -544.404 383.149C-784.374 136.199 -628.363 -62.9902 -374.243 -9.28852C66.2667 83.8018 452.79 -334.999 413.621 -528.829" stroke="url(#paint1_linear_0_1185)"/>
<path opacity="0.125" d="M-634.195 819.785C-584.97 792.624 -370.761 583.705 -560.737 365.398C-785.967 106.579 -620.769 -83.9949 -371.416 -17.2054C60.8322 98.5722 466.22 -299.071 437.467 -494.455" stroke="url(#paint2_linear_0_1185)"/>
<path opacity="0.166667" d="M-672.709 795.977C-622.431 771.454 -398.913 574.275 -576.094 346.713C-786.156 76.9218 -612.242 -104.514 -368.22 -24.9469C54.7856 112.981 477.909 -262.438 459.56 -458.758" stroke="url(#paint3_linear_0_1185)"/>
<path opacity="0.208333" d="M-709.826 769.95C-658.627 748.122 -426.42 563.211 -590.487 327.166C-785.001 47.3179 -602.867 -124.482 -364.721 -32.476C48.097 127.015 487.782 -225.175 479.792 -421.814" stroke="url(#paint4_linear_0_1185)"/>
<path opacity="0.25" d="M-745.418 741.774C-693.431 722.691 -453.178 550.541 -603.855 306.801C-782.492 17.8281 -592.656 -143.867 -360.91 -39.787C40.8133 140.632 495.839 -187.387 498.133 -383.734" stroke="url(#paint5_linear_0_1185)"/>
<path opacity="0.291667" d="M-779.368 711.535C-726.726 695.241 -479.094 536.31 -616.145 285.672C-778.629 -11.4778 -581.629 -162.626 -356.784 -46.8652C32.9764 153.802 502.082 -149.173 514.552 -344.622" stroke="url(#paint6_linear_0_1185)"/>
<path opacity="0.333333" d="M-811.584 679.332C-758.424 665.862 -504.096 520.572 -627.331 263.844C-773.435 -40.5261 -569.829 -180.716 -352.363 -53.6913C24.6076 166.503 506.496 -110.624 529.003 -304.579" stroke="url(#paint7_linear_0_1185)"/>
<path opacity="0.375" d="M-841.987 645.257C-788.446 634.641 -528.124 503.374 -637.395 241.37C-766.944 -69.2545 -557.309 -198.107 -347.674 -60.2574C15.7222 178.7 509.062 -71.8461 541.437 -263.719" stroke="url(#paint8_linear_0_1185)"/>
<path opacity="0.416667" d="M-870.488 609.42C-816.703 601.678 -551.105 484.78 -646.307 218.318C-759.176 -97.591 -544.103 -214.757 -342.727 -66.5453C6.35387 190.375 509.784 -32.9314 551.83 -222.146" stroke="url(#paint9_linear_0_1185)"/>
<path opacity="0.458333" d="M-897.006 571.931C-843.115 567.076 -572.973 464.852 -654.044 194.753C-750.159 -125.47 -530.257 -230.635 -337.539 -72.5427C-3.46927 201.505 508.663 6.02233 560.153 -179.971" stroke="url(#paint10_linear_0_1185)"/>
<path opacity="0.5" d="M-921.454 532.899C-867.595 530.938 -593.651 443.654 -660.571 170.735C-739.909 -152.83 -515.796 -245.712 -332.113 -78.2408C-13.7019 212.066 505.722 44.9139 566.402 -137.311" stroke="url(#paint11_linear_0_1185)"/>
<path opacity="0.541667" d="M-943.782 492.446C-890.091 493.379 -613.1 421.257 -665.89 146.334C-728.477 -179.607 -500.785 -259.96 -326.481 -83.6277C-24.3311 222.04 500.956 83.6477 570.546 -94.2775" stroke="url(#paint12_linear_0_1185)"/>
<path opacity="0.583333" d="M-963.906 450.693C-910.521 454.51 -631.242 397.734 -669.966 121.616C-715.876 -205.741 -485.245 -273.355 -320.64 -88.6944C-35.3031 231.409 494.404 122.127 572.597 -50.9858" stroke="url(#paint13_linear_0_1185)"/>
<path opacity="0.625" d="M-981.807 407.765C-928.863 414.452 -648.062 373.16 -672.824 96.649C-702.18 -231.175 -469.258 -285.873 -314.643 -93.4331C-46.6217 240.156 486.052 160.254 572.517 -7.5524" stroke="url(#paint14_linear_0_1185)"/>
<path opacity="0.666667" d="M-997.416 363.79C-945.048 373.324 -663.494 347.615 -674.437 71.5006C-687.409 -255.853 -452.849 -297.496 -308.485 -97.8365C-58.2337 248.268 475.945 197.934 570.329 35.9068" stroke="url(#paint15_linear_0_1185)"/>
<path opacity="0.708333" d="M-1010.66 318.908C-958.995 331.258 -677.46 321.185 -674.765 46.2462C-671.569 -279.714 -436.028 -308.2 -302.148 -101.892C-70.0691 255.737 464.152 235.081 566.079 79.282" stroke="url(#paint16_linear_0_1185)"/>
<path opacity="0.75" d="M-1021.59 273.241C-970.768 288.37 -690.02 293.947 -673.906 20.9458C-654.802 -302.717 -418.941 -317.98 -295.747 -105.604C-82.1934 262.544 450.608 271.592 559.683 122.449" stroke="url(#paint17_linear_0_1185)"/>
<path opacity="0.791667" d="M-1030.08 226.938C-980.222 244.802 -701.029 265.996 -671.752 -4.32134C-637.043 -324.803 -401.521 -326.815 -289.188 -108.958C-94.4605 268.691 435.464 307.389 551.271 165.302" stroke="url(#paint18_linear_0_1185)"/>
<path opacity="0.833333" d="M-1036.17 180.13C-987.401 200.677 -710.525 237.416 -668.376 -29.4915C-618.407 -345.93 -383.882 -334.699 -282.553 -111.955C-106.903 274.165 418.698 342.376 540.804 207.723" stroke="url(#paint19_linear_0_1185)"/>
<path opacity="0.875" d="M-1039.83 132.955C-992.276 156.129 -718.471 208.296 -663.775 -54.4964C-598.93 -366.056 -366.057 -341.628 -275.849 -114.595C-119.476 278.961 400.368 376.47 528.325 249.599" stroke="url(#paint20_linear_0_1185)"/>
<path opacity="0.916667" d="M-1041.06 85.5499C-994.839 111.285 -724.852 178.722 -657.966 -79.2717C-578.668 -385.142 -348.095 -347.6 -269.094 -116.878C-132.146 283.071 380.523 409.582 513.867 290.815" stroke="url(#paint21_linear_0_1185)"/>
<path opacity="0.958333" d="M-1039.84 38.0714C-995.072 66.2977 -729.636 148.805 -650.947 -103.733C-557.656 -403.135 -330.027 -352.597 -262.288 -118.788C-144.866 286.512 359.234 441.649 497.488 331.278" stroke="url(#paint22_linear_0_1185)"/>
<path d="M-1036.22 -9.35463C-993.008 21.2856 -732.845 118.622 -642.769 -127.828C-535.978 -420.013 -311.926 -356.634 -255.479 -120.34C-157.63 289.269 336.528 472.579 479.205 370.868" stroke="url(#paint23_linear_0_1185)"/>
</g>
</g>
<defs>
<linearGradient id="paint0_linear_0_1185" x1="-429.245" y1="-170.011" x2="7.35761" y2="191.076" gradientUnits="userSpaceOnUse">
<stop stop-color="#191919" stop-opacity="0.49"/>
<stop offset="0.5" stop-color="#191919" stop-opacity="0.06"/>
<stop offset="0.605" stop-color="#191919" stop-opacity="0.27"/>
<stop offset="1" stop-color="#191919" stop-opacity="0.37"/>
</linearGradient>
<linearGradient id="paint1_linear_0_1185" x1="-417.537" y1="-180.466" x2="-1.04892" y2="200.149" gradientUnits="userSpaceOnUse">
<stop stop-color="#191919" stop-opacity="0.49"/>
<stop offset="0.5" stop-color="#191919" stop-opacity="0.06"/>
<stop offset="0.605" stop-color="#191919" stop-opacity="0.27"/>
<stop offset="1" stop-color="#191919" stop-opacity="0.37"/>
</linearGradient>
<linearGradient id="paint2_linear_0_1185" x1="-405.443" y1="-190.208" x2="-9.94091" y2="209.053" gradientUnits="userSpaceOnUse">
<stop stop-color="#191919" stop-opacity="0.49"/>
<stop offset="0.5" stop-color="#191919" stop-opacity="0.06"/>
<stop offset="0.605" stop-color="#191919" stop-opacity="0.27"/>
<stop offset="1" stop-color="#191919" stop-opacity="0.37"/>
</linearGradient>
<linearGradient id="paint3_linear_0_1185" x1="-392.971" y1="-199.224" x2="-19.3229" y2="217.759" gradientUnits="userSpaceOnUse">
<stop stop-color="#191919" stop-opacity="0.49"/>
<stop offset="0.5" stop-color="#191919" stop-opacity="0.06"/>
<stop offset="0.605" stop-color="#191919" stop-opacity="0.27"/>
<stop offset="1" stop-color="#191919" stop-opacity="0.37"/>
</linearGradient>
<linearGradient id="paint4_linear_0_1185" x1="-380.216" y1="-207.477" x2="-29.2824" y2="226.252" gradientUnits="userSpaceOnUse">
<stop stop-color="#191919" stop-opacity="0.49"/>
<stop offset="0.5" stop-color="#191919" stop-opacity="0.06"/>
<stop offset="0.605" stop-color="#191919" stop-opacity="0.27"/>
<stop offset="1" stop-color="#191919" stop-opacity="0.37"/>
</linearGradient>
<linearGradient id="paint5_linear_0_1185" x1="-367.197" y1="-214.965" x2="-39.8278" y2="234.479" gradientUnits="userSpaceOnUse">
<stop stop-color="#191919" stop-opacity="0.49"/>
<stop offset="0.5" stop-color="#191919" stop-opacity="0.06"/>
<stop offset="0.605" stop-color="#191919" stop-opacity="0.27"/>
<stop offset="1" stop-color="#191919" stop-opacity="0.37"/>
</linearGradient>
<linearGradient id="paint6_linear_0_1185" x1="-353.938" y1="-221.677" x2="-50.9683" y2="242.387" gradientUnits="userSpaceOnUse">
<stop stop-color="#191919" stop-opacity="0.49"/>
<stop offset="0.5" stop-color="#191919" stop-opacity="0.06"/>
<stop offset="0.605" stop-color="#191919" stop-opacity="0.27"/>
<stop offset="1" stop-color="#191919" stop-opacity="0.37"/>
</linearGradient>
<linearGradient id="paint7_linear_0_1185" x1="-340.489" y1="-227.601" x2="-62.728" y2="249.922" gradientUnits="userSpaceOnUse">
<stop stop-color="#191919" stop-opacity="0.49"/>
<stop offset="0.5" stop-color="#191919" stop-opacity="0.06"/>
<stop offset="0.605" stop-color="#191919" stop-opacity="0.27"/>
<stop offset="1" stop-color="#191919" stop-opacity="0.37"/>
</linearGradient>
<linearGradient id="paint8_linear_0_1185" x1="-326.902" y1="-232.736" x2="-75.1295" y2="257.008" gradientUnits="userSpaceOnUse">
<stop stop-color="#191919" stop-opacity="0.49"/>
<stop offset="0.5" stop-color="#191919" stop-opacity="0.06"/>
<stop offset="0.605" stop-color="#191919" stop-opacity="0.27"/>
<stop offset="1" stop-color="#191919" stop-opacity="0.37"/>
</linearGradient>
<linearGradient id="paint9_linear_0_1185" x1="-313.215" y1="-237.073" x2="-88.1682" y2="263.579" gradientUnits="userSpaceOnUse">
<stop stop-color="#191919" stop-opacity="0.49"/>
<stop offset="0.5" stop-color="#191919" stop-opacity="0.06"/>
<stop offset="0.605" stop-color="#191919" stop-opacity="0.27"/>
<stop offset="1" stop-color="#191919" stop-opacity="0.37"/>
</linearGradient>
<linearGradient id="paint10_linear_0_1185" x1="-299.47" y1="-240.612" x2="-101.835" y2="269.557" gradientUnits="userSpaceOnUse">
<stop stop-color="#191919" stop-opacity="0.49"/>
<stop offset="0.5" stop-color="#191919" stop-opacity="0.06"/>
<stop offset="0.605" stop-color="#191919" stop-opacity="0.27"/>
<stop offset="1" stop-color="#191919" stop-opacity="0.37"/>
</linearGradient>
<linearGradient id="paint11_linear_0_1185" x1="-285.696" y1="-243.354" x2="-116.091" y2="274.859" gradientUnits="userSpaceOnUse">
<stop stop-color="#191919" stop-opacity="0.49"/>
<stop offset="0.5" stop-color="#191919" stop-opacity="0.06"/>
<stop offset="0.605" stop-color="#191919" stop-opacity="0.27"/>
<stop offset="1" stop-color="#191919" stop-opacity="0.37"/>
</linearGradient>
<linearGradient id="paint12_linear_0_1185" x1="-271.949" y1="-245.303" x2="-130.919" y2="279.404" gradientUnits="userSpaceOnUse">
<stop stop-color="#191919" stop-opacity="0.49"/>
<stop offset="0.5" stop-color="#191919" stop-opacity="0.06"/>
<stop offset="0.605" stop-color="#191919" stop-opacity="0.27"/>
<stop offset="1" stop-color="#191919" stop-opacity="0.37"/>
</linearGradient>
<linearGradient id="paint13_linear_0_1185" x1="-258.249" y1="-246.465" x2="-146.247" y2="283.111" gradientUnits="userSpaceOnUse">
<stop stop-color="#191919" stop-opacity="0.49"/>
<stop offset="0.5" stop-color="#191919" stop-opacity="0.06"/>
<stop offset="0.605" stop-color="#191919" stop-opacity="0.27"/>
<stop offset="1" stop-color="#191919" stop-opacity="0.37"/>
</linearGradient>
<linearGradient id="paint14_linear_0_1185" x1="-244.67" y1="-246.849" x2="-162.047" y2="285.902" gradientUnits="userSpaceOnUse">
<stop stop-color="#191919" stop-opacity="0.49"/>
<stop offset="0.5" stop-color="#191919" stop-opacity="0.06"/>
<stop offset="0.605" stop-color="#191919" stop-opacity="0.27"/>
<stop offset="1" stop-color="#191919" stop-opacity="0.37"/>
</linearGradient>
<linearGradient id="paint15_linear_0_1185" x1="-231.23" y1="-246.465" x2="-178.22" y2="287.707" gradientUnits="userSpaceOnUse">
<stop stop-color="#191919" stop-opacity="0.49"/>
<stop offset="0.5" stop-color="#191919" stop-opacity="0.06"/>
<stop offset="0.605" stop-color="#191919" stop-opacity="0.27"/>
<stop offset="1" stop-color="#191919" stop-opacity="0.37"/>
</linearGradient>
<linearGradient id="paint16_linear_0_1185" x1="-217.931" y1="-245.319" x2="-194.639" y2="288.468" gradientUnits="userSpaceOnUse">
<stop stop-color="#191919" stop-opacity="0.49"/>
<stop offset="0.5" stop-color="#191919" stop-opacity="0.06"/>
<stop offset="0.605" stop-color="#191919" stop-opacity="0.27"/>
<stop offset="1" stop-color="#191919" stop-opacity="0.37"/>
</linearGradient>
<linearGradient id="paint17_linear_0_1185" x1="-204.907" y1="-243.436" x2="-211.3" y2="288.125" gradientUnits="userSpaceOnUse">
<stop stop-color="#191919" stop-opacity="0.49"/>
<stop offset="0.5" stop-color="#191919" stop-opacity="0.06"/>
<stop offset="0.605" stop-color="#191919" stop-opacity="0.27"/>
<stop offset="1" stop-color="#191919" stop-opacity="0.37"/>
</linearGradient>
<linearGradient id="paint18_linear_0_1185" x1="-192.08" y1="-240.824" x2="-227.98" y2="286.65" gradientUnits="userSpaceOnUse">
<stop stop-color="#191919" stop-opacity="0.49"/>
<stop offset="0.5" stop-color="#191919" stop-opacity="0.06"/>
<stop offset="0.605" stop-color="#191919" stop-opacity="0.27"/>
<stop offset="1" stop-color="#191919" stop-opacity="0.37"/>
</linearGradient>
<linearGradient id="paint19_linear_0_1185" x1="-179.552" y1="-237.505" x2="-244.624" y2="284.013" gradientUnits="userSpaceOnUse">
<stop stop-color="#191919" stop-opacity="0.49"/>
<stop offset="0.5" stop-color="#191919" stop-opacity="0.06"/>
<stop offset="0.605" stop-color="#191919" stop-opacity="0.27"/>
<stop offset="1" stop-color="#191919" stop-opacity="0.37"/>
</linearGradient>
<linearGradient id="paint20_linear_0_1185" x1="-167.341" y1="-233.502" x2="-261.095" y2="280.207" gradientUnits="userSpaceOnUse">
<stop stop-color="#191919" stop-opacity="0.49"/>
<stop offset="0.5" stop-color="#191919" stop-opacity="0.06"/>
<stop offset="0.605" stop-color="#191919" stop-opacity="0.27"/>
<stop offset="1" stop-color="#191919" stop-opacity="0.37"/>
</linearGradient>
<linearGradient id="paint21_linear_0_1185" x1="-155.481" y1="-228.841" x2="-277.268" y2="275.239" gradientUnits="userSpaceOnUse">
<stop stop-color="#191919" stop-opacity="0.49"/>
<stop offset="0.5" stop-color="#191919" stop-opacity="0.06"/>
<stop offset="0.605" stop-color="#191919" stop-opacity="0.27"/>
<stop offset="1" stop-color="#191919" stop-opacity="0.37"/>
</linearGradient>
<linearGradient id="paint22_linear_0_1185" x1="-143.985" y1="-223.53" x2="-292.999" y2="269.155" gradientUnits="userSpaceOnUse">
<stop stop-color="#191919" stop-opacity="0.49"/>
<stop offset="0.5" stop-color="#191919" stop-opacity="0.06"/>
<stop offset="0.605" stop-color="#191919" stop-opacity="0.27"/>
<stop offset="1" stop-color="#191919" stop-opacity="0.37"/>
</linearGradient>
<linearGradient id="paint23_linear_0_1185" x1="-132.91" y1="-217.608" x2="-308.197" y2="261.986" gradientUnits="userSpaceOnUse">
<stop stop-color="#191919" stop-opacity="0.49"/>
<stop offset="0.5" stop-color="#191919" stop-opacity="0.06"/>
<stop offset="0.605" stop-color="#191919" stop-opacity="0.27"/>
<stop offset="1" stop-color="#191919" stop-opacity="0.37"/>
</linearGradient>
<clipPath id="clip0_0_1185">
<rect width="280" height="360" fill="white"/>
</clipPath>
</defs>
</svg>
