<svg width="260" height="26" viewBox="0 0 260 26" fill="none" xmlns="http://www.w3.org/2000/svg">
<path d="M66.4137 11.4545C66.4137 12.8352 66.1644 14.0284 65.6658 15.0341C65.1673 16.0398 64.4833 16.8153 63.614 17.3608C62.7447 17.9062 61.7518 18.179 60.6353 18.179C59.5188 18.179 58.5259 17.9062 57.6566 17.3608C56.7873 16.8153 56.1033 16.0398 55.6048 15.0341C55.1062 14.0284 54.8569 12.8352 54.8569 11.4545C54.8569 10.0739 55.1062 8.88068 55.6048 7.875C56.1033 6.86932 56.7873 6.09375 57.6566 5.5483C58.5259 5.00284 59.5188 4.73011 60.6353 4.73011C61.7518 4.73011 62.7447 5.00284 63.614 5.5483C64.4833 6.09375 65.1673 6.86932 65.6658 7.875C66.1644 8.88068 66.4137 10.0739 66.4137 11.4545ZM64.8796 11.4545C64.8796 10.321 64.69 9.36435 64.3107 8.58452C63.9357 7.80469 63.4265 7.21449 62.783 6.81392C62.1438 6.41335 61.4279 6.21307 60.6353 6.21307C59.8427 6.21307 59.1246 6.41335 58.4812 6.81392C57.842 7.21449 57.3327 7.80469 56.9535 8.58452C56.5785 9.36435 56.391 10.321 56.391 11.4545C56.391 12.5881 56.5785 13.5447 56.9535 14.3246C57.3327 15.1044 57.842 15.6946 58.4812 16.0952C59.1246 16.4957 59.8427 16.696 60.6353 16.696C61.4279 16.696 62.1438 16.4957 62.783 16.0952C63.4265 15.6946 63.9357 15.1044 64.3107 14.3246C64.69 13.5447 64.8796 12.5881 64.8796 11.4545ZM66.3784 6.31534V4.90909H76.1965V6.31534H72.0801V18H70.4948V6.31534H66.3784ZM76.0781 21.1705V16.5938H76.9218C77.2116 16.3295 77.4843 15.9567 77.74 15.4751C78 14.9893 78.2194 14.3416 78.3984 13.532C78.5816 12.718 78.7031 11.6847 78.7627 10.4318L79.044 4.90909H86.8167V16.5938H88.3252V21.1449H86.8167V18H77.5866V21.1705H76.0781ZM78.8139 16.5938H85.3082V6.31534H80.4758L80.2713 10.4318C80.2201 11.3864 80.1306 12.2514 80.0028 13.027C79.875 13.7983 79.7109 14.4822 79.5106 15.0788C79.3103 15.6712 79.0781 16.1761 78.8139 16.5938ZM89.2807 18V4.90909H97.1812V6.31534H90.8659V10.7386H96.7721V12.1449H90.8659V16.5938H97.2835V18H89.2807ZM97.4735 18V16.5426H97.857C98.4025 16.5426 98.8265 16.3679 99.129 16.0185C99.4316 15.669 99.6489 15.1044 99.781 14.3246C99.9174 13.5447 100.009 12.5114 100.056 11.2244L100.286 4.90909H108.263V18H106.678V6.31534H101.795L101.59 11.5312C101.539 12.9034 101.413 14.071 101.213 15.0341C101.013 15.9972 100.661 16.7322 100.158 17.2393C99.6553 17.7464 98.9223 18 97.9593 18H97.4735ZM123.406 4.90909V18H121.82V6.31534H115.224V18H113.639V4.90909H123.406ZM125.163 18V4.90909H129.587C130.614 4.90909 131.453 5.09446 132.105 5.4652C132.761 5.83168 133.247 6.32812 133.562 6.95455C133.878 7.58097 134.035 8.27983 134.035 9.05114C134.035 9.82244 133.878 10.5234 133.562 11.1541C133.251 11.7848 132.77 12.2876 132.118 12.6626C131.466 13.0334 130.631 13.2188 129.612 13.2188H126.442V11.8125H129.561C130.264 11.8125 130.829 11.6911 131.255 11.4482C131.681 11.2053 131.99 10.8771 132.182 10.4638C132.378 10.0462 132.476 9.57528 132.476 9.05114C132.476 8.52699 132.378 8.05824 132.182 7.64489C131.99 7.23153 131.679 6.90767 131.248 6.6733C130.818 6.43466 130.247 6.31534 129.535 6.31534H126.748V18H125.163ZM146.194 11.4545C146.194 12.8352 145.945 14.0284 145.447 15.0341C144.948 16.0398 144.264 16.8153 143.395 17.3608C142.525 17.9062 141.533 18.179 140.416 18.179C139.3 18.179 138.307 17.9062 137.437 17.3608C136.568 16.8153 135.884 16.0398 135.386 15.0341C134.887 14.0284 134.638 12.8352 134.638 11.4545C134.638 10.0739 134.887 8.88068 135.386 7.875C135.884 6.86932 136.568 6.09375 137.437 5.5483C138.307 5.00284 139.3 4.73011 140.416 4.73011C141.533 4.73011 142.525 5.00284 143.395 5.5483C144.264 6.09375 144.948 6.86932 145.447 7.875C145.945 8.88068 146.194 10.0739 146.194 11.4545ZM144.66 11.4545C144.66 10.321 144.471 9.36435 144.091 8.58452C143.716 7.80469 143.207 7.21449 142.564 6.81392C141.925 6.41335 141.209 6.21307 140.416 6.21307C139.623 6.21307 138.905 6.41335 138.262 6.81392C137.623 7.21449 137.114 7.80469 136.734 8.58452C136.359 9.36435 136.172 10.321 136.172 11.4545C136.172 12.5881 136.359 13.5447 136.734 14.3246C137.114 15.1044 137.623 15.6946 138.262 16.0952C138.905 16.4957 139.623 16.696 140.416 16.696C141.209 16.696 141.925 16.4957 142.564 16.0952C143.207 15.6946 143.716 15.1044 144.091 14.3246C144.471 13.5447 144.66 12.5881 144.66 11.4545ZM146.295 21.1705V16.5938H147.139C147.428 16.3295 147.701 15.9567 147.957 15.4751C148.217 14.9893 148.436 14.3416 148.615 13.532C148.799 12.718 148.92 11.6847 148.98 10.4318L149.261 4.90909H157.034V16.5938H158.542V21.1449H157.034V18H147.803V21.1705H146.295ZM149.031 16.5938H155.525V6.31534H150.693L150.488 10.4318C150.437 11.3864 150.348 12.2514 150.22 13.027C150.092 13.7983 149.928 14.4822 149.727 15.0788C149.527 15.6712 149.295 16.1761 149.031 16.5938ZM160.034 18H158.373L163.179 4.90909H164.816L169.623 18H167.961L164.049 6.98011H163.946L160.034 18ZM160.648 12.8864H167.347V14.2926H160.648V12.8864ZM177.969 4.90909V18H176.384V4.90909H177.969ZM169.122 18L173.366 11.1733L169.48 4.90909H171.398L174.798 10.7131H179.58L182.98 4.90909H184.898L180.986 11.1989L185.23 18H183.415L179.861 12.196H174.491L170.912 18H169.122ZM200.535 11.4545C200.535 12.8352 200.286 14.0284 199.788 15.0341C199.289 16.0398 198.605 16.8153 197.736 17.3608C196.866 17.9062 195.874 18.179 194.757 18.179C193.641 18.179 192.648 17.9062 191.778 17.3608C190.909 16.8153 190.225 16.0398 189.727 15.0341C189.228 14.0284 188.979 12.8352 188.979 11.4545C188.979 10.0739 189.228 8.88068 189.727 7.875C190.225 6.86932 190.909 6.09375 191.778 5.5483C192.648 5.00284 193.641 4.73011 194.757 4.73011C195.874 4.73011 196.866 5.00284 197.736 5.5483C198.605 6.09375 199.289 6.86932 199.788 7.875C200.286 8.88068 200.535 10.0739 200.535 11.4545ZM199.001 11.4545C199.001 10.321 198.812 9.36435 198.433 8.58452C198.058 7.80469 197.548 7.21449 196.905 6.81392C196.266 6.41335 195.55 6.21307 194.757 6.21307C193.964 6.21307 193.246 6.41335 192.603 6.81392C191.964 7.21449 191.455 7.80469 191.075 8.58452C190.7 9.36435 190.513 10.321 190.513 11.4545C190.513 12.5881 190.7 13.5447 191.075 14.3246C191.455 15.1044 191.964 15.6946 192.603 16.0952C193.246 16.4957 193.964 16.696 194.757 16.696C195.55 16.696 196.266 16.4957 196.905 16.0952C197.548 15.6946 198.058 15.1044 198.433 14.3246C198.812 13.5447 199.001 12.5881 199.001 11.4545ZM201.761 18V4.90909H203.346V10.7386H210.326V4.90909H211.912V18H210.326V12.1449H203.346V18H201.761ZM212.52 18V16.5426H212.904C213.449 16.5426 213.873 16.3679 214.176 16.0185C214.478 15.669 214.696 15.1044 214.828 14.3246C214.964 13.5447 215.056 12.5114 215.103 11.2244L215.333 4.90909H223.31V18H221.725V6.31534H216.841L216.637 11.5312C216.586 12.9034 216.46 14.071 216.26 15.0341C216.059 15.9972 215.708 16.7322 215.205 17.2393C214.702 17.7464 213.969 18 213.006 18H212.52ZM225.574 18H223.912L228.719 4.90909H230.355L235.162 18H233.5L229.588 6.98011H229.486L225.574 18ZM226.188 12.8864H232.887V14.2926H226.188V12.8864ZM235.761 4.90909H237.321V15.2131H237.449L244.608 4.90909H246.142V18H244.557V7.72159H244.429L237.295 18H235.761V4.90909ZM242.204 1.63636H243.611C243.611 2.3267 243.372 2.89134 242.895 3.33026C242.418 3.76918 241.77 3.98864 240.952 3.98864C240.146 3.98864 239.505 3.76918 239.028 3.33026C238.555 2.89134 238.318 2.3267 238.318 1.63636H239.724C239.724 1.96875 239.816 2.26065 239.999 2.51207C240.187 2.76349 240.504 2.8892 240.952 2.8892C241.399 2.8892 241.719 2.76349 241.91 2.51207C242.106 2.26065 242.204 1.96875 242.204 1.63636ZM247.874 18V4.90909H249.459V10.7386H256.439V4.90909H258.025V18H256.439V12.1449H249.459V18H247.874Z" fill="white"/>
<path d="M14.3427 0L28.6854 25.1429H0L14.3427 0Z" fill="white"/>
<path d="M34.9375 25.1428L49.2802 -3.62396e-05H20.5948L34.9375 25.1428Z" fill="white"/>
</svg>
