<svg width="277" height="26" viewBox="0 0 277 26" fill="none" xmlns="http://www.w3.org/2000/svg">
<path d="M14.3427 0.000244141L28.6854 25.1431H0L14.3427 0.000244141Z" fill="black"/>
<path d="M34.9364 25.1428L49.2791 -3.62396e-05H20.5938L34.9364 25.1428Z" fill="black"/>
<path d="M63.0236 9.75335C62.9469 9.10562 62.6358 8.60278 62.0904 8.24483C61.5449 7.88687 60.8759 7.7079 60.0833 7.7079C59.5037 7.7079 58.9966 7.80165 58.562 7.98915C58.1316 8.17665 57.7949 8.43446 57.552 8.76258C57.3134 9.09071 57.1941 9.46358 57.1941 9.88119C57.1941 10.2306 57.2772 10.531 57.4434 10.7825C57.6138 11.0296 57.8311 11.2363 58.0953 11.4025C58.3596 11.5644 58.6365 11.6987 58.9263 11.8052C59.2161 11.9075 59.4824 11.9906 59.7253 12.0545L61.0549 12.4124C61.3958 12.5019 61.775 12.6255 62.1926 12.7832C62.6145 12.9409 63.0172 13.156 63.4007 13.4288C63.7885 13.6972 64.1081 14.0424 64.3596 14.4643C64.611 14.8862 64.7367 15.4039 64.7367 16.0176C64.7367 16.7249 64.5513 17.3641 64.1806 17.9352C63.8141 18.5062 63.2772 18.96 62.5698 19.2967C61.8667 19.6333 61.0123 19.8016 60.0066 19.8016C59.0691 19.8016 58.2573 19.6504 57.5712 19.3478C56.8894 19.0453 56.3525 18.6234 55.9604 18.0822C55.5726 17.541 55.3532 16.9124 55.302 16.1965H56.9384C56.981 16.6909 57.1472 17.0999 57.437 17.4238C57.731 17.7434 58.1017 17.982 58.5492 18.1397C59.0009 18.2931 59.4867 18.3698 60.0066 18.3698C60.6117 18.3698 61.155 18.2718 61.6365 18.0758C62.1181 17.8755 62.4995 17.5985 62.7807 17.2448C63.062 16.8869 63.2026 16.4693 63.2026 15.992C63.2026 15.5573 63.0811 15.2036 62.8382 14.9309C62.5953 14.6582 62.2757 14.4366 61.8794 14.2661C61.4831 14.0957 61.0549 13.9465 60.5946 13.8187L58.9838 13.3585C57.9611 13.0644 57.1515 12.6447 56.5549 12.0992C55.9583 11.5538 55.66 10.84 55.66 9.9579C55.66 9.22494 55.8581 8.58574 56.2544 8.04028C56.655 7.49057 57.1919 7.06443 57.8652 6.76187C58.5428 6.45506 59.2992 6.30165 60.1344 6.30165C60.9782 6.30165 61.7282 6.45292 62.3844 6.75548C63.0407 7.05378 63.5605 7.46287 63.9441 7.98275C64.3319 8.50264 64.5364 9.09284 64.5577 9.75335H63.0236ZM66.44 19.5715H64.778L69.5849 6.48062H71.2212L76.028 19.5715H74.3661L70.4542 8.55165H70.3519L66.44 19.5715ZM67.0536 14.4579H73.7525V15.8641H67.0536V14.4579ZM76.6271 19.5715V6.48062H78.2123V18.1653H84.2976V19.5715H76.6271ZM85.3121 19.5715V6.48062H93.2127V7.88687H86.8973V12.3102H92.8036V13.7164H86.8973V18.1653H93.3149V19.5715H85.3121ZM101.789 9.75335C101.712 9.10562 101.401 8.60278 100.856 8.24483C100.31 7.88687 99.6413 7.7079 98.8487 7.7079C98.2691 7.7079 97.762 7.80165 97.3274 7.98915C96.897 8.17665 96.5603 8.43446 96.3174 8.76258C96.0788 9.09071 95.9595 9.46358 95.9595 9.88119C95.9595 10.2306 96.0426 10.531 96.2087 10.7825C96.3792 11.0296 96.5965 11.2363 96.8607 11.4025C97.1249 11.5644 97.4019 11.6987 97.6917 11.8052C97.9815 11.9075 98.2478 11.9906 98.4907 12.0545L99.8203 12.4124C100.161 12.5019 100.54 12.6255 100.958 12.7832C101.38 12.9409 101.783 13.156 102.166 13.4288C102.554 13.6972 102.874 14.0424 103.125 14.4643C103.376 14.8862 103.502 15.4039 103.502 16.0176C103.502 16.7249 103.317 17.3641 102.946 17.9352C102.579 18.5062 102.043 18.96 101.335 19.2967C100.632 19.6333 99.7776 19.8016 98.772 19.8016C97.8345 19.8016 97.0227 19.6504 96.3366 19.3478C95.6548 19.0453 95.1178 18.6234 94.7258 18.0822C94.338 17.541 94.1185 16.9124 94.0674 16.1965H95.7038C95.7464 16.6909 95.9126 17.0999 96.2024 17.4238C96.4964 17.7434 96.8671 17.982 97.3146 18.1397C97.7663 18.2931 98.2521 18.3698 98.772 18.3698C99.3771 18.3698 99.9204 18.2718 100.402 18.0758C100.883 17.8755 101.265 17.5985 101.546 17.2448C101.827 16.8869 101.968 16.4693 101.968 15.992C101.968 15.5573 101.847 15.2036 101.604 14.9309C101.361 14.6582 101.041 14.4366 100.645 14.2661C100.249 14.0957 99.8203 13.9465 99.36 13.8187L97.7492 13.3585C96.7265 13.0644 95.9168 12.6447 95.3203 12.0992C94.7237 11.5538 94.4254 10.84 94.4254 9.9579C94.4254 9.22494 94.6235 8.58574 95.0198 8.04028C95.4204 7.49057 95.9573 7.06443 96.6306 6.76187C97.3082 6.45506 98.0646 6.30165 98.8998 6.30165C99.7435 6.30165 100.494 6.45292 101.15 6.75548C101.806 7.05378 102.326 7.46287 102.709 7.98275C103.097 8.50264 103.302 9.09284 103.323 9.75335H101.789ZM112.331 19.5715H108.291V6.48062H112.51C113.78 6.48062 114.866 6.7427 115.77 7.26685C116.673 7.78673 117.366 8.5346 117.847 9.51045C118.329 10.482 118.569 11.6454 118.569 13.0005C118.569 14.3641 118.326 15.5382 117.841 16.5225C117.355 17.5026 116.647 18.2569 115.718 18.7853C114.79 19.3095 113.66 19.5715 112.331 19.5715ZM109.876 18.1653H112.228C113.311 18.1653 114.208 17.9565 114.919 17.5389C115.631 17.1212 116.162 16.5268 116.511 15.7555C116.861 14.9842 117.035 14.0659 117.035 13.0005C117.035 11.9437 116.863 11.0339 116.517 10.2711C116.172 9.50406 115.657 8.91599 114.971 8.5069C114.285 8.09355 113.43 7.88687 112.407 7.88687H109.876V18.1653ZM119.788 19.5715V6.48062H127.689V7.88687H121.374V12.3102H127.28V13.7164H121.374V18.1653H127.791V19.5715H119.788ZM129.106 19.5715V6.48062H133.53C134.557 6.48062 135.396 6.66599 136.048 7.03673C136.704 7.40321 137.19 7.89966 137.505 8.52608C137.821 9.1525 137.978 9.85136 137.978 10.6227C137.978 11.394 137.821 12.095 137.505 12.7257C137.194 13.3563 136.713 13.8592 136.061 14.2342C135.409 14.6049 134.574 14.7903 133.555 14.7903H130.385V13.384H133.504C134.207 13.384 134.772 13.2626 135.198 13.0197C135.624 12.7768 135.933 12.4487 136.125 12.0353C136.321 11.6177 136.419 11.1468 136.419 10.6227C136.419 10.0985 136.321 9.62977 136.125 9.21642C135.933 8.80307 135.622 8.4792 135.191 8.24483C134.761 8.00619 134.19 7.88687 133.478 7.88687H130.691V19.5715H129.106ZM138.293 19.5715H136.631L141.438 6.48062H143.074L147.881 19.5715H146.219L142.307 8.55165H142.205L138.293 19.5715ZM138.907 14.4579H145.606V15.8641H138.907V14.4579ZM148.48 19.5715V6.48062H152.903C153.926 6.48062 154.766 6.65534 155.422 7.00477C156.078 7.34994 156.564 7.82508 156.879 8.4302C157.195 9.03531 157.352 9.72352 157.352 10.4948C157.352 11.2661 157.195 11.9501 156.879 12.5467C156.564 13.1433 156.08 13.612 155.428 13.9529C154.776 14.2896 153.943 14.4579 152.929 14.4579H149.349V13.0261H152.878C153.577 13.0261 154.139 12.9238 154.565 12.7193C154.996 12.5147 155.307 12.2249 155.499 11.8499C155.695 11.4707 155.793 11.019 155.793 10.4948C155.793 9.97068 155.695 9.51258 155.499 9.12054C155.303 8.72849 154.989 8.42594 154.559 8.21287C154.129 7.99554 153.56 7.88687 152.852 7.88687H150.065V19.5715H148.48ZM154.642 13.6909L157.864 19.5715H156.023L152.852 13.6909H154.642ZM157.838 7.88687V6.48062H167.656V7.88687H163.54V19.5715H161.954V7.88687H157.838ZM168.663 6.48062H170.555L175.004 17.3471H175.157L179.606 6.48062H181.498V19.5715H180.015V9.62551H179.887L175.796 19.5715H174.364L170.273 9.62551H170.146V19.5715H168.663V6.48062ZM183.236 19.5715V6.48062H191.137V7.88687H184.822V12.3102H190.728V13.7164H184.822V18.1653H191.239V19.5715H183.236ZM202.935 6.48062V19.5715H201.401L194.267 9.29312H194.139V19.5715H192.554V6.48062H194.088L201.247 16.7846H201.375V6.48062H202.935ZM203.951 7.88687V6.48062H213.769V7.88687H209.653V19.5715H208.067V7.88687H203.951ZM229.444 13.0261C229.444 14.4068 229.194 15.5999 228.696 16.6056C228.197 17.6113 227.513 18.3869 226.644 18.9323C225.775 19.4778 224.782 19.7505 223.665 19.7505C222.549 19.7505 221.556 19.4778 220.687 18.9323C219.817 18.3869 219.133 17.6113 218.635 16.6056C218.136 15.5999 217.887 14.4068 217.887 13.0261C217.887 11.6454 218.136 10.4522 218.635 9.44653C219.133 8.44085 219.817 7.66528 220.687 7.11983C221.556 6.57437 222.549 6.30165 223.665 6.30165C224.782 6.30165 225.775 6.57437 226.644 7.11983C227.513 7.66528 228.197 8.44085 228.696 9.44653C229.194 10.4522 229.444 11.6454 229.444 13.0261ZM227.91 13.0261C227.91 11.8926 227.72 10.9359 227.341 10.1561C226.966 9.37622 226.456 8.78602 225.813 8.38545C225.174 7.98489 224.458 7.7846 223.665 7.7846C222.873 7.7846 222.155 7.98489 221.511 8.38545C220.872 8.78602 220.363 9.37622 219.983 10.1561C219.608 10.9359 219.421 11.8926 219.421 13.0261C219.421 14.1596 219.608 15.1163 219.983 15.8961C220.363 16.6759 220.872 17.2661 221.511 17.6667C222.155 18.0673 222.873 18.2676 223.665 18.2676C224.458 18.2676 225.174 18.0673 225.813 17.6667C226.456 17.2661 226.966 16.6759 227.341 15.8961C227.72 15.1163 227.91 14.1596 227.91 13.0261ZM241.05 6.48062V19.5715H239.516L232.382 9.29312H232.254V19.5715H230.669V6.48062H232.203L239.362 16.7846H239.49V6.48062H241.05ZM242.782 19.5715V6.48062H244.367V18.1653H250.452V19.5715H242.782ZM253.052 6.48062V19.5715H251.467V6.48062H253.052ZM265.171 6.48062V19.5715H263.637L256.504 9.29312H256.376V19.5715H254.791V6.48062H256.325L263.484 16.7846H263.612V6.48062H265.171ZM266.903 19.5715V6.48062H274.804V7.88687H268.488V12.3102H274.395V13.7164H268.488V18.1653H274.906V19.5715H266.903Z" fill="black"/>
</svg>
