<svg width="110" height="90" viewBox="0 0 110 90" fill="none" xmlns="http://www.w3.org/2000/svg">
<g opacity="0.6">
<path d="M63.2125 66.0859C51.8406 70.7458 40.7373 72.2756 32.1085 71.2297C23.2754 70.1591 18.3181 66.6502 16.6487 62.5737C14.9793 58.4972 16.051 52.5179 21.5947 45.556C27.0102 38.7552 35.9954 32.0531 47.3673 27.3932C58.7391 22.7333 69.8425 21.2036 78.4713 22.2494C87.3044 23.3201 92.2616 26.8289 93.931 30.9054C95.6004 34.9819 94.5287 40.9613 88.985 47.9232C83.5696 54.724 74.5843 61.426 63.2125 66.0859Z" fill="white" stroke="black" stroke-width="10.9833"/>
<path d="M9.27183 59.9398C11.9616 66.5079 19.3478 70.3404 28.9639 71.3201C38.5963 72.3015 50.5592 70.4366 62.5794 65.511C74.5997 60.5854 84.4325 53.519 90.6083 46.0598C96.7737 38.6132 99.3494 30.6986 96.6596 24.1305C93.9699 17.5624 86.5836 13.7299 76.9676 12.7502C67.3352 11.7688 55.3723 13.6337 43.352 18.5593C31.3318 23.4849 21.499 30.5513 15.3231 38.0105C9.15775 45.457 6.58211 53.3717 9.27183 59.9398Z" fill="white" stroke="black" stroke-width="0.677632"/>
<path opacity="0.3" d="M46.81 38.1252L46.8092 38.1255C45.6984 38.5845 44.5896 38.8501 43.4841 38.9185L41.9439 39.0138C40.8419 39.082 39.8977 38.9446 39.1311 38.5758L39.1293 38.5749C38.3518 38.195 37.8557 37.5826 37.6681 36.7551L37.6672 36.7509C37.489 35.9158 37.7263 34.9161 38.2915 33.7836C38.8547 32.6552 39.6071 31.684 40.5477 30.8726L40.5482 30.8722C41.4943 30.0589 42.5228 29.4252 43.6333 28.9733C44.753 28.5141 45.8662 28.2482 46.9716 28.1798L48.5119 28.0845C49.6122 28.0164 50.5529 28.1493 51.3138 28.5092C52.1045 28.878 52.609 29.4814 52.7924 30.3053C52.9867 31.1345 52.7544 32.1322 52.1897 33.2636C51.6262 34.3926 50.8647 35.3723 49.9071 36.2006C48.9699 37.0139 47.9373 37.6559 46.81 38.1252ZM43.1753 32.1368L43.1745 32.1372C42.3696 32.5125 41.7636 33.1073 41.3508 33.9345C41.1325 34.3719 41.0516 34.6977 41.0605 34.9278C41.0686 35.1343 41.1473 35.2705 41.3047 35.3738C41.7393 35.6515 42.359 35.7863 43.2013 35.7342L44.7415 35.6389C45.5774 35.5872 46.4193 35.3599 47.2691 34.9512C48.1005 34.5489 48.7181 33.9389 49.1304 33.1128C49.3489 32.675 49.4262 32.3538 49.4142 32.1311C49.4035 31.9344 49.3246 31.8047 49.1598 31.7062L49.1572 31.7047C48.7224 31.4396 48.1002 31.3117 47.2545 31.3641L45.7142 31.4594C44.8771 31.5112 44.0313 31.7351 43.1753 32.1368ZM57.0285 50.1067L57.0277 50.107C55.9169 50.566 54.8081 50.8316 53.7026 50.9L52.1623 50.9953C51.0604 51.0635 50.1162 50.9262 49.3496 50.5573L49.3478 50.5564C48.5702 50.1765 48.0742 49.5641 47.8866 48.7366L47.8857 48.7324C47.7075 47.8973 47.9448 46.8977 48.51 45.7652C49.0732 44.6368 49.8256 43.6655 50.7662 42.8541L50.7666 42.8537C51.7129 42.0404 52.7415 41.4066 53.852 40.9547C54.9717 40.4955 56.0848 40.2298 57.1901 40.1613L58.7304 40.066C59.8307 39.9979 60.7714 40.1308 61.5323 40.4908C62.3229 40.8595 62.8274 41.4629 63.0108 42.2868C63.2052 43.1159 62.9729 44.1137 62.4082 45.2451C61.8447 46.3741 61.0833 47.3536 60.1258 48.1819C59.1886 48.9953 58.1559 49.6373 57.0285 50.1067ZM53.3938 44.1184L53.393 44.1187C52.5881 44.494 51.9821 45.0889 51.5693 45.916C51.3509 46.3535 51.2701 46.6792 51.279 46.9094C51.2871 47.1159 51.3658 47.2521 51.5233 47.3554C51.9579 47.633 52.5776 47.7679 53.4197 47.7157L54.96 47.6204C55.7959 47.5687 56.6379 47.3414 57.4878 46.9327C58.3191 46.5304 58.9366 45.9204 59.3489 45.0943C59.5674 44.6566 59.6447 44.3353 59.6327 44.1127C59.622 43.916 59.5431 43.7862 59.3783 43.6877L59.3783 43.6878L59.3757 43.6862C58.9409 43.4212 58.3187 43.2933 57.473 43.3456L55.9327 43.4409C55.0955 43.4927 54.2498 43.7167 53.3938 44.1184ZM30.59 51.3617L29.6667 51.8399L30.1311 50.9095L31.5832 48L31.6325 47.9012L31.7305 47.8504L69.9059 28.0755L70.8292 27.5972L70.3648 28.5277L68.9127 31.4371L68.8634 31.5359L68.7654 31.5867L30.59 51.3617Z" stroke="black" stroke-width="0.677632"/>
</g>
</svg>
