<svg width="243" height="347" viewBox="0 0 243 347" fill="none" xmlns="http://www.w3.org/2000/svg">
<g opacity="0.5">
<path d="M140.437 343.538C112.878 347.802 86.947 345.17 67.3081 337.493C47.6556 329.81 34.3993 317.122 31.9552 301.325C29.511 285.527 38.3132 269.426 54.7252 256.164C71.1257 242.911 95.0484 232.566 122.608 228.302C150.168 224.038 176.099 226.67 195.738 234.347C215.39 242.029 228.646 254.717 231.091 270.515C233.535 286.312 224.733 302.413 208.321 315.675C191.92 328.929 167.997 339.274 140.437 343.538Z" fill="#7A7A7A" stroke="white"/>
<path d="M32.7134 292.08C35.2147 308.248 48.8148 321.035 68.5815 328.7C88.3624 336.372 114.417 338.962 142.064 334.685C169.711 330.407 193.765 320.064 210.303 306.774C226.829 293.493 235.929 277.194 233.427 261.027C230.926 244.859 217.326 232.072 197.559 224.407C177.778 216.735 151.724 214.145 124.076 218.422C96.4291 222.7 72.3756 233.043 55.8378 246.333C39.3119 259.614 30.212 275.913 32.7134 292.08Z" fill="#7A7A7A" stroke="white"/>
</g>
<g opacity="0.5">
<path d="M174.343 109.164C144.867 116.607 116.12 102.762 109.985 78.4668C103.85 54.172 122.575 28.3378 152.051 20.8939C181.527 13.4501 210.273 27.2958 216.408 51.5907C222.544 75.8855 203.818 101.72 174.343 109.164Z" fill="#7A7A7A" stroke="white"/>
<path d="M108.965 71.4443C115.226 96.236 144.565 110.047 174.338 102.528C204.112 95.0089 223.375 68.9241 217.114 44.1324C210.853 19.3407 181.515 5.52974 151.741 13.0487C121.967 20.5678 102.704 46.6526 108.965 71.4443Z" fill="#7A7A7A" stroke="white"/>
</g>
<g opacity="0.5">
<path d="M55.515 218.922C40.3477 202.105 31.5364 182.47 29.5328 164.337C27.529 146.203 32.3332 129.612 44.3362 118.787C56.3391 107.961 73.3359 104.889 91.1679 108.747C108.999 112.606 127.623 123.39 142.79 140.207C157.957 157.023 166.769 176.658 168.772 194.791C170.776 212.925 165.972 229.516 153.969 240.342C141.966 251.167 124.969 254.239 107.137 250.381C89.3061 246.523 70.6823 235.738 55.515 218.922Z" fill="#7A7A7A" stroke="white"/>
<path d="M52.1441 113.87C39.9399 124.877 35.1644 141.728 37.2389 160.009C39.3136 178.292 48.239 198.05 63.5002 214.971C78.7613 231.892 97.4965 242.802 115.469 246.747C133.44 250.691 150.693 247.674 162.897 236.667C175.101 225.66 179.877 208.809 177.802 190.527C175.727 172.245 166.802 152.486 151.541 135.566C136.28 118.645 117.544 107.734 99.5719 103.79C81.6005 99.8459 64.3482 102.863 52.1441 113.87Z" fill="#7A7A7A" stroke="white"/>
</g>
</svg>
