<svg width="1520" height="752" viewBox="0 0 1520 752" fill="none" xmlns="http://www.w3.org/2000/svg">
<g opacity="0.2" clip-path="url(#clip0_0_1338)">
<path d="M1046.1 -540.008C998.577 -499.281 803.784 -211.745 1029.86 23.9532C1297.9 303.39 1151.56 560.952 883.856 518.769C419.79 445.645 51.4441 992.56 107.11 1225.62" stroke="url(#paint0_linear_0_1338)"/>
<path d="M1088.78 -518.08C1039.87 -480.37 834.087 -205.419 1047.94 43.8696C1301.47 339.42 1145.06 587.453 881.438 528.754C424.454 426.999 35.1859 950.11 80.1616 1186.2" stroke="url(#paint1_linear_0_1338)"/>
<path d="M1130.28 -493.217C1080.11 -458.615 863.909 -196.989 1065.1 65.0007C1303.62 375.609 1137.58 613.431 878.649 538.541C429.804 408.723 20.6994 906.622 54.949 1144.99" stroke="url(#paint2_linear_0_1338)"/>
<path d="M1170.49 -465.493C1119.18 -434.08 893.166 -186.482 1081.3 87.2939C1304.35 411.875 1129.15 638.831 875.505 548.116C435.825 390.864 8.02253 862.213 31.5443 1102.1" stroke="url(#paint3_linear_0_1338)"/>
<path d="M1209.27 -434.998C1156.97 -406.849 921.765 -173.94 1096.5 110.684C1303.66 448.127 1119.8 663.595 872.013 557.454C442.485 373.461 -2.82558 816.997 9.99963 1057.65" stroke="url(#paint4_linear_0_1338)"/>
<path d="M1246.53 -401.83C1193.37 -377.009 949.633 -159.413 1110.66 135.104C1301.57 484.275 1109.58 687.665 868.196 566.532C449.771 356.55 -11.8109 771.087 -9.61789 1011.76" stroke="url(#paint5_linear_0_1338)"/>
<path d="M1282.16 -366.092C1228.27 -344.656 976.669 -142.952 1123.73 160.485C1298.08 520.232 1098.5 710.989 864.051 575.33C457.641 340.168 -18.9337 724.601 -27.276 964.539" stroke="url(#paint6_linear_0_1338)"/>
<path d="M1316.05 -327.897C1261.57 -309.893 1002.81 -124.617 1135.69 186.757C1293.23 555.913 1086.62 733.516 859.608 583.829C466.082 324.35 -24.1661 677.655 -42.9148 916.127" stroke="url(#paint7_linear_0_1338)"/>
<path d="M1348.1 -287.355C1293.18 -272.823 1027.97 -104.465 1146.5 213.851C1287.02 591.237 1073.98 755.205 854.87 592.016C475.054 309.132 -27.5125 630.375 -56.5074 866.654" stroke="url(#paint8_linear_0_1338)"/>
<path d="M1378.24 -244.599C1323.02 -233.568 1052.09 -82.571 1156.14 241.686C1279.5 626.117 1060.61 776.005 849.865 599.869C484.54 294.542 -28.9577 582.875 -68.008 816.25" stroke="url(#paint9_linear_0_1338)"/>
<path d="M1406.36 -199.753C1350.98 -192.244 1075.08 -59.0041 1164.56 270.19C1270.66 660.474 1046.56 795.88 844.593 607.376C494.495 280.611 -28.5178 535.279 -77.403 765.052" stroke="url(#paint10_linear_0_1338)"/>
<path d="M1432.41 -152.958C1377 -148.983 1096.89 -33.8472 1171.78 299.281C1260.56 694.228 1031.87 814.787 839.088 614.52C504.904 267.364 -26.1831 487.703 -84.6538 713.195" stroke="url(#paint11_linear_0_1338)"/>
<path d="M1456.29 -104.354C1401.01 -103.916 1117.45 -7.18063 1177.74 328.879C1249.22 727.302 1016.59 832.693 833.356 621.29C515.724 254.828 -21.9752 440.268 -89.7541 660.82" stroke="url(#paint12_linear_0_1338)"/>
<path d="M1477.95 -54.0889C1422.92 -57.1818 1136.7 20.9073 1182.45 358.903C1236.68 759.621 1000.76 849.567 827.413 627.672C526.923 243.023 -15.9109 393.094 -92.6939 608.065" stroke="url(#paint13_linear_0_1338)"/>
<path d="M1497.32 -2.31588C1442.7 -8.92442 1154.61 50.3233 1185.89 389.268C1222.98 791.111 984.433 865.375 821.287 633.654C538.477 231.97 -8.00152 346.295 -93.4591 555.069" stroke="url(#paint14_linear_0_1338)"/>
<path d="M1514.36 50.8117C1460.28 40.7116 1171.09 80.9748 1188.05 419.892C1208.15 821.704 967.649 880.097 814.983 639.228C550.34 221.689 1.71701 299.99 -92.0611 501.978" stroke="url(#paint15_linear_0_1338)"/>
<path d="M1529.02 105.132C1475.61 91.5731 1186.13 112.761 1188.93 450.69C1192.24 851.33 950.462 893.705 808.527 644.384C562.486 212.192 13.2217 254.293 -88.4999 448.928" stroke="url(#paint16_linear_0_1338)"/>
<path d="M1541.25 160.483C1488.66 143.507 1199.67 145.58 1188.52 481.577C1175.3 879.926 932.918 906.182 801.935 649.114C574.88 203.495 26.477 209.316 -82.7892 396.062" stroke="url(#paint17_linear_0_1338)"/>
<path d="M1551.04 216.702C1499.39 196.359 1211.69 179.331 1186.84 512.471C1157.38 907.433 915.069 917.513 795.229 653.416C587.489 195.612 41.4485 165.173 -74.9433 343.524" stroke="url(#paint18_linear_0_1338)"/>
<path d="M1558.35 273.614C1507.78 249.963 1222.15 213.9 1183.88 543.281C1138.51 933.786 896.956 927.68 788.42 657.278C600.274 188.545 58.0869 121.965 -64.9925 291.445" stroke="url(#paint19_linear_0_1338)"/>
<path d="M1563.17 331.058C1513.8 304.166 1231.02 249.185 1179.66 573.929C1118.77 958.937 878.636 936.679 781.533 660.703C613.207 182.308 76.3538 79.8071 -52.958 239.971" stroke="url(#paint20_linear_0_1338)"/>
<path d="M1565.49 388.857C1517.44 358.8 1238.28 285.071 1174.18 604.327C1098.18 982.83 860.147 944.499 774.576 663.685C626.243 176.901 96.1871 38.7951 -38.8861 189.233" stroke="url(#paint21_linear_0_1338)"/>
<path d="M1565.3 446.85C1518.7 413.709 1243.92 321.452 1167.46 634.4C1076.82 1005.42 841.546 951.143 767.579 666.228C639.359 172.335 117.544 -0.962364 -22.8051 139.373" stroke="url(#paint22_linear_0_1338)"/>
<path d="M1562.61 504.849C1517.57 468.716 1247.91 358.202 1159.52 664.051C1054.73 1026.66 822.871 956.599 760.548 668.319C652.511 168.595 140.357 -39.3839 -4.77154 90.5085" stroke="url(#paint23_linear_0_1338)"/>
<path d="M1557.45 562.691C1514.08 523.664 1250.28 395.214 1150.4 693.207C1031.99 1046.5 804.188 960.874 753.518 669.968C665.683 165.689 164.581 -76.3687 15.1825 42.7762" stroke="url(#paint24_linear_0_1338)"/>
</g>
<defs>
<linearGradient id="paint0_linear_0_1338" x1="942.041" y1="723.789" x2="425.774" y2="379.58" gradientUnits="userSpaceOnUse">
<stop stop-color="white" stop-opacity="0.49"/>
<stop offset="0.5" stop-color="white" stop-opacity="0.06"/>
<stop offset="0.605" stop-color="white" stop-opacity="0.27"/>
<stop offset="1" stop-color="white" stop-opacity="0.37"/>
</linearGradient>
<linearGradient id="paint1_linear_0_1338" x1="930.142" y1="737.014" x2="428.746" y2="367.587" gradientUnits="userSpaceOnUse">
<stop stop-color="white" stop-opacity="0.49"/>
<stop offset="0.5" stop-color="white" stop-opacity="0.06"/>
<stop offset="0.605" stop-color="white" stop-opacity="0.27"/>
<stop offset="1" stop-color="white" stop-opacity="0.37"/>
</linearGradient>
<linearGradient id="paint2_linear_0_1338" x1="917.818" y1="749.37" x2="432.659" y2="354.633" gradientUnits="userSpaceOnUse">
<stop stop-color="white" stop-opacity="0.49"/>
<stop offset="0.5" stop-color="white" stop-opacity="0.06"/>
<stop offset="0.605" stop-color="white" stop-opacity="0.27"/>
<stop offset="1" stop-color="white" stop-opacity="0.37"/>
</linearGradient>
<linearGradient id="paint3_linear_0_1338" x1="905.118" y1="760.839" x2="437.715" y2="340.778" gradientUnits="userSpaceOnUse">
<stop stop-color="white" stop-opacity="0.49"/>
<stop offset="0.5" stop-color="white" stop-opacity="0.06"/>
<stop offset="0.605" stop-color="white" stop-opacity="0.27"/>
<stop offset="1" stop-color="white" stop-opacity="0.37"/>
</linearGradient>
<linearGradient id="paint4_linear_0_1338" x1="892.075" y1="771.396" x2="444.106" y2="326.102" gradientUnits="userSpaceOnUse">
<stop stop-color="white" stop-opacity="0.49"/>
<stop offset="0.5" stop-color="white" stop-opacity="0.06"/>
<stop offset="0.605" stop-color="white" stop-opacity="0.27"/>
<stop offset="1" stop-color="white" stop-opacity="0.37"/>
</linearGradient>
<linearGradient id="paint5_linear_0_1338" x1="878.745" y1="781.023" x2="452.044" y2="310.725" gradientUnits="userSpaceOnUse">
<stop stop-color="white" stop-opacity="0.49"/>
<stop offset="0.5" stop-color="white" stop-opacity="0.06"/>
<stop offset="0.605" stop-color="white" stop-opacity="0.27"/>
<stop offset="1" stop-color="white" stop-opacity="0.37"/>
</linearGradient>
<linearGradient id="paint6_linear_0_1338" x1="865.153" y1="789.702" x2="461.7" y2="294.813" gradientUnits="userSpaceOnUse">
<stop stop-color="white" stop-opacity="0.49"/>
<stop offset="0.5" stop-color="white" stop-opacity="0.06"/>
<stop offset="0.605" stop-color="white" stop-opacity="0.27"/>
<stop offset="1" stop-color="white" stop-opacity="0.37"/>
</linearGradient>
<linearGradient id="paint7_linear_0_1338" x1="851.357" y1="797.422" x2="473.265" y2="278.572" gradientUnits="userSpaceOnUse">
<stop stop-color="white" stop-opacity="0.49"/>
<stop offset="0.5" stop-color="white" stop-opacity="0.06"/>
<stop offset="0.605" stop-color="white" stop-opacity="0.27"/>
<stop offset="1" stop-color="white" stop-opacity="0.37"/>
</linearGradient>
<linearGradient id="paint8_linear_0_1338" x1="837.389" y1="804.178" x2="486.875" y2="262.256" gradientUnits="userSpaceOnUse">
<stop stop-color="white" stop-opacity="0.49"/>
<stop offset="0.5" stop-color="white" stop-opacity="0.06"/>
<stop offset="0.605" stop-color="white" stop-opacity="0.27"/>
<stop offset="1" stop-color="white" stop-opacity="0.37"/>
</linearGradient>
<linearGradient id="paint9_linear_0_1338" x1="823.304" y1="809.957" x2="502.656" y2="246.155" gradientUnits="userSpaceOnUse">
<stop stop-color="white" stop-opacity="0.49"/>
<stop offset="0.5" stop-color="white" stop-opacity="0.06"/>
<stop offset="0.605" stop-color="white" stop-opacity="0.27"/>
<stop offset="1" stop-color="white" stop-opacity="0.37"/>
</linearGradient>
<linearGradient id="paint10_linear_0_1338" x1="809.129" y1="814.762" x2="520.659" y2="230.605" gradientUnits="userSpaceOnUse">
<stop stop-color="white" stop-opacity="0.49"/>
<stop offset="0.5" stop-color="white" stop-opacity="0.06"/>
<stop offset="0.605" stop-color="white" stop-opacity="0.27"/>
<stop offset="1" stop-color="white" stop-opacity="0.37"/>
</linearGradient>
<linearGradient id="paint11_linear_0_1338" x1="794.926" y1="818.589" x2="540.909" y2="215.965" gradientUnits="userSpaceOnUse">
<stop stop-color="white" stop-opacity="0.49"/>
<stop offset="0.5" stop-color="white" stop-opacity="0.06"/>
<stop offset="0.605" stop-color="white" stop-opacity="0.27"/>
<stop offset="1" stop-color="white" stop-opacity="0.37"/>
</linearGradient>
<linearGradient id="paint12_linear_0_1338" x1="780.724" y1="821.442" x2="563.334" y2="202.621" gradientUnits="userSpaceOnUse">
<stop stop-color="white" stop-opacity="0.49"/>
<stop offset="0.5" stop-color="white" stop-opacity="0.06"/>
<stop offset="0.605" stop-color="white" stop-opacity="0.27"/>
<stop offset="1" stop-color="white" stop-opacity="0.37"/>
</linearGradient>
<linearGradient id="paint13_linear_0_1338" x1="766.565" y1="823.327" x2="587.793" y2="190.961" gradientUnits="userSpaceOnUse">
<stop stop-color="white" stop-opacity="0.49"/>
<stop offset="0.5" stop-color="white" stop-opacity="0.06"/>
<stop offset="0.605" stop-color="white" stop-opacity="0.27"/>
<stop offset="1" stop-color="white" stop-opacity="0.37"/>
</linearGradient>
<linearGradient id="paint14_linear_0_1338" x1="752.499" y1="824.249" x2="614.075" y2="181.359" gradientUnits="userSpaceOnUse">
<stop stop-color="white" stop-opacity="0.49"/>
<stop offset="0.5" stop-color="white" stop-opacity="0.06"/>
<stop offset="0.605" stop-color="white" stop-opacity="0.27"/>
<stop offset="1" stop-color="white" stop-opacity="0.37"/>
</linearGradient>
<linearGradient id="paint15_linear_0_1338" x1="738.555" y1="824.224" x2="641.866" y2="174.163" gradientUnits="userSpaceOnUse">
<stop stop-color="white" stop-opacity="0.49"/>
<stop offset="0.5" stop-color="white" stop-opacity="0.06"/>
<stop offset="0.605" stop-color="white" stop-opacity="0.27"/>
<stop offset="1" stop-color="white" stop-opacity="0.37"/>
</linearGradient>
<linearGradient id="paint16_linear_0_1338" x1="724.779" y1="823.262" x2="670.793" y2="169.659" gradientUnits="userSpaceOnUse">
<stop stop-color="white" stop-opacity="0.49"/>
<stop offset="0.5" stop-color="white" stop-opacity="0.06"/>
<stop offset="0.605" stop-color="white" stop-opacity="0.27"/>
<stop offset="1" stop-color="white" stop-opacity="0.37"/>
</linearGradient>
<linearGradient id="paint17_linear_0_1338" x1="711.206" y1="821.381" x2="700.407" y2="168.067" gradientUnits="userSpaceOnUse">
<stop stop-color="white" stop-opacity="0.49"/>
<stop offset="0.5" stop-color="white" stop-opacity="0.06"/>
<stop offset="0.605" stop-color="white" stop-opacity="0.27"/>
<stop offset="1" stop-color="white" stop-opacity="0.37"/>
</linearGradient>
<linearGradient id="paint18_linear_0_1338" x1="697.88" y1="818.603" x2="730.223" y2="169.513" gradientUnits="userSpaceOnUse">
<stop stop-color="white" stop-opacity="0.49"/>
<stop offset="0.5" stop-color="white" stop-opacity="0.06"/>
<stop offset="0.605" stop-color="white" stop-opacity="0.27"/>
<stop offset="1" stop-color="white" stop-opacity="0.37"/>
</linearGradient>
<linearGradient id="paint19_linear_0_1338" x1="684.826" y1="814.944" x2="759.717" y2="174.016" gradientUnits="userSpaceOnUse">
<stop stop-color="white" stop-opacity="0.49"/>
<stop offset="0.5" stop-color="white" stop-opacity="0.06"/>
<stop offset="0.605" stop-color="white" stop-opacity="0.27"/>
<stop offset="1" stop-color="white" stop-opacity="0.37"/>
</linearGradient>
<linearGradient id="paint20_linear_0_1338" x1="672.088" y1="810.434" x2="788.386" y2="181.503" gradientUnits="userSpaceOnUse">
<stop stop-color="white" stop-opacity="0.49"/>
<stop offset="0.5" stop-color="white" stop-opacity="0.06"/>
<stop offset="0.605" stop-color="white" stop-opacity="0.27"/>
<stop offset="1" stop-color="white" stop-opacity="0.37"/>
</linearGradient>
<linearGradient id="paint21_linear_0_1338" x1="659.688" y1="805.095" x2="815.735" y2="191.785" gradientUnits="userSpaceOnUse">
<stop stop-color="white" stop-opacity="0.49"/>
<stop offset="0.5" stop-color="white" stop-opacity="0.06"/>
<stop offset="0.605" stop-color="white" stop-opacity="0.27"/>
<stop offset="1" stop-color="white" stop-opacity="0.37"/>
</linearGradient>
<linearGradient id="paint22_linear_0_1338" x1="647.668" y1="798.963" x2="841.343" y2="204.594" gradientUnits="userSpaceOnUse">
<stop stop-color="white" stop-opacity="0.49"/>
<stop offset="0.5" stop-color="white" stop-opacity="0.06"/>
<stop offset="0.605" stop-color="white" stop-opacity="0.27"/>
<stop offset="1" stop-color="white" stop-opacity="0.37"/>
</linearGradient>
<linearGradient id="paint23_linear_0_1338" x1="636.048" y1="792.056" x2="864.843" y2="219.568" gradientUnits="userSpaceOnUse">
<stop stop-color="white" stop-opacity="0.49"/>
<stop offset="0.5" stop-color="white" stop-opacity="0.06"/>
<stop offset="0.605" stop-color="white" stop-opacity="0.27"/>
<stop offset="1" stop-color="white" stop-opacity="0.37"/>
</linearGradient>
<linearGradient id="paint24_linear_0_1338" x1="624.872" y1="784.413" x2="885.98" y2="236.312" gradientUnits="userSpaceOnUse">
<stop stop-color="white" stop-opacity="0.49"/>
<stop offset="0.5" stop-color="white" stop-opacity="0.06"/>
<stop offset="0.605" stop-color="white" stop-opacity="0.27"/>
<stop offset="1" stop-color="white" stop-opacity="0.37"/>
</linearGradient>
<clipPath id="clip0_0_1338">
<rect width="1520" height="751.053" fill="white"/>
</clipPath>
</defs>
</svg>
